<svg width="60" height="60" viewBox="0 0 60 60" fill="none" xmlns="http://www.w3.org/2000/svg">
<g clip-path="url(#clip0_1304_13)">
<path fill-rule="evenodd" clip-rule="evenodd" d="M60 30C60 37.9565 56.8393 45.5871 51.2132 51.2132C45.5871 56.8393 37.9565 60 30 60C22.0435 60 14.4129 56.8393 8.7868 51.2132C3.1607 45.5871 0 37.9565 0 30C0 22.0435 3.1607 14.4129 8.7868 8.7868C14.4129 3.1607 22.0435 0 30 0C37.9565 0 45.5871 3.1607 51.2132 8.7868C56.8393 14.4129 60 22.0435 60 30ZM25 15C25 13.6739 25.5268 12.4021 26.4645 11.4645C27.4021 10.5268 28.6739 10 30 10C31.3261 10 32.5979 10.5268 33.5355 11.4645C34.4732 12.4021 35 13.6739 35 15V30C35 31.3261 34.4732 32.5979 33.5355 33.5355C32.5979 34.4732 31.3261 35 30 35C28.6739 35 27.4021 34.4732 26.4645 33.5355C25.5268 32.5979 25 31.3261 25 30V15ZM30 40C28.6739 40 27.4021 40.5268 26.4645 41.4645C25.5268 42.4021 25 43.6739 25 45C25 46.3261 25.5268 47.5979 26.4645 48.5355C27.4021 49.4732 28.6739 50 30 50C31.3261 50 32.5979 49.4732 33.5355 48.5355C34.4732 47.5979 35 46.3261 35 45C35 43.6739 34.4732 42.4021 33.5355 41.4645C32.5979 40.5268 31.3261 40 30 40Z" fill="#2388C2"/>
</g>
<defs>
<clipPath id="clip0_1304_13">
<rect width="60" height="60" fill="white"/>
</clipPath>
</defs>
</svg>
