<svg xmlns="http://www.w3.org/2000/svg" width="100" height="100" viewBox="0 0 100 100">
  <g id="Group_17191" data-name="Group 17191" transform="translate(1006 -2320)">
    <rect id="Rectangle_17567" data-name="Rectangle 17567" width="100" height="100" rx="20" transform="translate(-1006 2320)" fill="#2388C2"/>
    <path id="account_balance_wallet_FILL0_wght400_GRAD0_opsz48" d="M42.3,34.934A4.182,4.182,0,0,0,45.341,33.6a4.255,4.255,0,0,0,1.331-3.1,4.072,4.072,0,0,0-1.331-3,4.2,4.2,0,0,0-6.073,0,4.072,4.072,0,0,0-1.331,3,4.255,4.255,0,0,0,1.331,3.1A4.182,4.182,0,0,0,42.3,34.934ZM10.094,47.422v0Zm0,7.711A3.967,3.967,0,0,1,7.262,53.9,3.878,3.878,0,0,1,6,51.039V10.094A3.916,3.916,0,0,1,7.262,7.262,3.916,3.916,0,0,1,10.094,6H51.039A3.878,3.878,0,0,1,53.9,7.262a3.967,3.967,0,0,1,1.228,2.832v9.144H51.039V10.094H10.094V51.039H51.039V41.963h4.094v9.076a4.2,4.2,0,0,1-4.094,4.094Zm24.43-11.806a4.979,4.979,0,0,1-3.685-1.365,4.889,4.889,0,0,1-1.365-3.617V22.855A4.864,4.864,0,0,1,30.839,19.2a5.052,5.052,0,0,1,3.685-1.331H52.949A5.052,5.052,0,0,1,56.634,19.2,4.864,4.864,0,0,1,58,22.855V38.346a4.889,4.889,0,0,1-1.365,3.617,4.979,4.979,0,0,1-3.685,1.365ZM53.9,39.233V21.968H33.569V39.233Z" transform="translate(-987.743 2339.912)" fill="#fff"/>
  </g>
</svg>
